<?xml version="1.0" standalone="no"?>
<!DOCTYPE svg PUBLIC "-//W3C//DTD SVG 20010904//EN"
 "http://www.w3.org/TR/2001/REC-SVG-20010904/DTD/svg10.dtd">
<svg version="1.0" xmlns="http://www.w3.org/2000/svg"
 width="100.000000pt" height="100.000000pt" viewBox="0 0 100.000000 100.000000"
 preserveAspectRatio="xMidYMid meet">

<g transform="translate(0.000000,100.000000) scale(0.100000,-0.100000)"
fill="#f2f2f2" stroke="none">
<path d="M162 981 c-11 -7 -10 -27 4 -116 19 -118 18 -131 -33 -429 -14 -85
-15 -110 -4 -184 7 -48 17 -92 23 -99 8 -10 55 -13 185 -13 163 0 175 -1 168
-17 -4 -10 -10 -28 -12 -40 -5 -21 -1 -23 30 -23 27 0 37 -5 42 -20 11 -34 33
-22 60 30 14 28 32 50 40 50 8 0 24 -18 35 -39 26 -52 35 -56 55 -25 14 21 22
25 46 20 38 -7 41 2 18 53 -17 38 -17 46 -5 60 7 9 16 36 19 61 2 25 8 52 11
61 5 10 -3 28 -18 47 -15 16 -26 36 -26 44 0 23 -34 48 -63 48 -18 0 -27 5
-27 16 0 40 34 201 46 221 9 14 14 51 14 98 0 68 2 75 20 75 18 0 20 -7 20
-54 0 -35 -5 -58 -15 -66 -10 -8 -15 -31 -15 -69 l0 -57 50 0 50 0 0 58 c0 47
-4 60 -20 70 -16 10 -20 24 -20 68 0 31 5 61 11 67 18 18 2 31 -56 44 -41 9
-56 17 -61 33 -4 12 -12 24 -18 28 -15 11 -538 10 -554 -1z m174 -54 c-44 -12
-81 -27 -83 -34 -3 -8 13 -17 41 -24 l45 -11 3 -81 3 -82 95 -18 c82 -16 107
-17 179 -7 46 6 86 8 89 5 3 -3 -2 -48 -12 -100 -14 -75 -22 -95 -35 -95 -9 0
-28 -8 -41 -18 -21 -14 -54 -18 -222 -20 -162 -3 -198 -6 -198 -18 0 -11 29
-14 160 -14 172 0 184 -4 137 -48 -21 -19 -35 -22 -160 -24 -185 -4 -186 -22
-1 -26 137 -2 142 -3 148 -25 3 -12 6 -25 6 -29 0 -5 -63 -8 -140 -8 -118 0
-140 -2 -140 -15 0 -13 22 -15 140 -15 129 0 140 -1 150 -20 11 -20 8 -20
-159 -20 l-170 0 -8 47 c-13 77 -7 180 16 298 30 150 35 253 19 348 l-14 77
115 -1 116 -1 -79 -21z m339 -6 c55 -16 93 -31 85 -34 -8 -3 -57 -17 -108 -31
l-94 -25 -96 25 c-54 14 -104 28 -112 31 -15 5 168 61 205 62 11 0 65 -12 120
-28z m65 -135 l0 -64 -93 -17 c-85 -15 -99 -15 -176 -1 -45 9 -87 18 -92 22
-5 3 -9 30 -9 60 0 64 -1 63 111 33 l77 -21 88 25 c49 14 90 26 92 26 1 1 2
-28 2 -63z m108 -99 c3 -22 -1 -27 -17 -27 -17 0 -21 6 -21 31 0 24 4 30 18
27 10 -2 18 -14 20 -31z m-162 -251 c11 -8 33 -16 49 -18 22 -2 30 -10 36 -32
4 -15 15 -36 23 -45 11 -12 14 -30 9 -74 -3 -31 -10 -57 -14 -57 -5 0 -24 -13
-42 -30 -29 -25 -43 -30 -86 -30 -46 0 -58 5 -97 38 -30 25 -43 43 -40 55 2 9
-1 30 -7 47 -9 24 -8 32 6 48 9 10 22 33 28 50 9 25 17 32 38 32 15 0 36 7 47
15 24 18 25 18 50 1z m104 -319 c0 -5 -6 -7 -14 -4 -8 3 -20 -1 -27 -9 -7 -9
-16 -11 -21 -6 -6 6 -1 19 14 34 20 21 25 23 36 9 6 -8 12 -19 12 -24z m-206
10 c19 -18 22 -27 14 -41 -9 -16 -10 -16 -22 0 -8 10 -20 15 -30 11 -9 -4 -16
-4 -16 -2 0 7 23 55 26 55 2 0 14 -10 28 -23z"/>
<path d="M257 624 c-20 -20 10 -24 194 -24 156 0 200 3 197 13 -4 9 -53 13
-194 15 -105 1 -193 -1 -197 -4z"/>
<path d="M223 518 c6 -19 388 -19 395 0 3 9 -41 12 -198 12 -157 0 -201 -3
-197 -12z"/>
<path d="M590 383 c-60 -55 -55 -137 10 -181 91 -62 206 32 165 135 -30 74
-118 97 -175 46z m124 -24 c19 -15 26 -30 26 -55 0 -47 -13 -69 -50 -84 -35
-15 -84 0 -100 31 -45 82 51 166 124 108z"/>
</g>
</svg>
