<?xml version="1.0" standalone="no"?>
<!DOCTYPE svg PUBLIC "-//W3C//DTD SVG 20010904//EN"
 "http://www.w3.org/TR/2001/REC-SVG-20010904/DTD/svg10.dtd">
<svg version="1.0" xmlns="http://www.w3.org/2000/svg"
 width="512.000000pt" height="512.000000pt" viewBox="0 0 512.000000 512.000000"
 preserveAspectRatio="xMidYMid meet">

<g transform="translate(0.000000,512.000000) scale(0.100000,-0.100000)"
fill="#f2f2f2" stroke="none">
<path d="M1265 5102 c-94 -32 -162 -104 -191 -198 -8 -27 -14 -89 -14 -145 l0
-97 -187 -4 c-215 -3 -247 -12 -323 -88 -83 -83 -103 -180 -81 -392 38 -364
162 -645 372 -843 110 -103 243 -183 369 -221 41 -12 48 -19 74 -71 82 -168
221 -372 356 -522 77 -85 223 -215 335 -299 101 -75 128 -102 157 -160 22 -46
23 -55 26 -358 l3 -310 -75 -37 c-119 -59 -193 -158 -217 -290 l-12 -65 -86
-4 c-103 -5 -161 -28 -221 -88 -84 -84 -85 -88 -88 -487 l-3 -352 30 -33 29
-33 1036 -3 1035 -2 33 29 33 29 0 359 c0 345 -1 360 -21 404 -12 26 -41 66
-64 89 -60 60 -118 83 -220 88 l-86 4 -12 66 c-26 134 -105 235 -230 295 l-63
29 3 312 c3 303 4 312 26 358 29 58 56 85 157 160 291 216 519 484 677 794 41
80 45 85 88 98 128 39 268 123 373 225 209 201 330 478 368 839 22 212 2 309
-81 392 -76 76 -108 85 -321 88 l-187 4 -4 116 c-3 92 -8 127 -25 163 -27 60
-92 125 -152 153 l-46 21 -1260 2 c-1175 2 -1263 1 -1310 -15z m2562 -215 l28
-27 0 -528 c-1 -579 -2 -602 -66 -841 -52 -197 -154 -425 -262 -586 -125 -187
-313 -381 -507 -526 -122 -90 -163 -134 -204 -216 -52 -103 -56 -138 -56 -530
l0 -363 28 -30 c21 -23 41 -33 87 -41 97 -17 165 -78 180 -161 l7 -38 -502 0
-502 0 7 37 c15 84 87 149 175 160 38 4 62 14 84 34 l31 27 3 367 c3 398 0
432 -53 538 -42 82 -83 126 -205 216 -195 145 -382 340 -507 526 -106 159
-211 393 -262 585 -64 240 -65 263 -66 841 0 513 1 527 20 549 11 12 29 26 40
31 11 4 572 7 1247 6 l1228 -2 27 -28z m-2767 -695 c0 -358 22 -567 81 -765
11 -38 18 -71 16 -73 -10 -10 -156 98 -209 154 -175 183 -278 468 -282 783 -1
94 1 109 19 129 32 35 50 39 218 39 l157 1 0 -268z m3367 235 c27 -27 28 -30
27 -135 -4 -316 -107 -600 -282 -784 -53 -56 -199 -164 -209 -154 -2 2 5 35
16 73 59 198 81 406 81 765 l0 269 170 -3 170 -3 27 -28z m-1000 -3660 l28
-27 3 -270 3 -270 -901 0 -901 0 3 269 c3 253 4 270 23 291 11 12 29 26 40 31
11 4 392 7 847 6 l828 -2 27 -28z"/>
<path d="M2540 4513 c-53 -15 -64 -31 -162 -233 -55 -112 -101 -206 -103 -208
-2 -2 -95 -17 -207 -32 -111 -16 -219 -34 -239 -40 -45 -12 -69 -47 -69 -97 0
-36 10 -48 169 -206 l169 -169 -38 -226 c-34 -202 -37 -229 -25 -258 7 -18 22
-37 33 -43 49 -26 88 -13 289 93 l198 105 201 -105 c222 -115 255 -124 299
-80 13 13 27 35 30 48 3 12 -12 123 -33 245 l-38 222 167 167 c107 107 169
176 172 193 8 40 -17 89 -55 105 -18 8 -116 26 -218 41 -102 14 -198 28 -213
31 -25 5 -39 28 -132 214 -57 115 -109 211 -115 215 -19 12 -65 22 -80 18z
m90 -471 c36 -69 76 -134 90 -144 20 -14 248 -57 313 -58 7 0 -41 -52 -105
-114 -137 -131 -131 -114 -98 -306 11 -63 20 -123 20 -132 0 -14 -27 -3 -133
52 -74 39 -146 70 -162 70 -15 0 -88 -32 -161 -71 -74 -39 -134 -66 -134 -60
0 6 11 74 25 152 21 123 23 145 11 172 -7 18 -59 76 -115 131 -56 54 -100 100
-98 102 2 2 68 13 148 25 79 11 154 27 165 34 12 8 52 76 88 151 37 75 70 134
74 130 4 -4 36 -64 72 -134z"/>
<path d="M2124 590 c-32 -13 -64 -59 -64 -91 0 -18 11 -41 29 -61 l29 -33 235
-3 236 -3 33 29 c27 25 33 37 33 72 0 35 -6 47 -33 71 l-32 29 -223 -1 c-122
0 -232 -4 -243 -9z"/>
<path d="M2924 590 c-32 -13 -64 -59 -64 -91 0 -40 46 -88 91 -95 31 -5 42 -1
70 24 28 25 34 37 34 72 0 35 -6 47 -33 71 -33 29 -60 35 -98 19z"/>
</g>
</svg>
