<?xml version="1.0" standalone="no"?>
<!DOCTYPE svg PUBLIC "-//W3C//DTD SVG 20010904//EN"
 "http://www.w3.org/TR/2001/REC-SVG-20010904/DTD/svg10.dtd">
<svg version="1.0" xmlns="http://www.w3.org/2000/svg"
 width="108.000000pt" height="108.000000pt" viewBox="0 0 108.000000 108.000000"
 preserveAspectRatio="xMidYMid meet">

<g transform="translate(0.000000,108.000000) scale(0.100000,-0.100000)"
fill="#f2f2f2" stroke="none">
<path d="M17 1066 c-6 -15 88 -332 104 -352 12 -15 39 -8 39 10 0 7 -17 71
-39 142 -21 71 -37 130 -36 132 2 2 186 -87 411 -198 368 -181 406 -202 388
-214 -41 -28 -796 -427 -800 -423 -3 2 12 71 32 151 26 105 34 150 26 158 -24
24 -39 -6 -81 -173 -24 -96 -46 -182 -49 -191 -11 -42 34 -27 240 83 117 62
227 120 243 129 17 9 118 63 225 120 219 116 270 146 270 161 0 10 -935 479
-956 479 -7 0 -14 -6 -17 -14z"/>
<path d="M134 608 c-4 -6 1 -17 11 -25 29 -20 567 -19 585 2 6 8 9 19 5 25 -9
15 -591 14 -601 -2z"/>
</g>
</svg>
