<?xml version="1.0" standalone="no"?>
<!DOCTYPE svg PUBLIC "-//W3C//DTD SVG 20010904//EN"
 "http://www.w3.org/TR/2001/REC-SVG-20010904/DTD/svg10.dtd">
<svg version="1.0" xmlns="http://www.w3.org/2000/svg"
 width="1200.000000pt" height="1200.000000pt" viewBox="0 0 1200.000000 1200.000000"
 preserveAspectRatio="xMidYMid meet">

<g transform="translate(0.000000,1200.000000) scale(0.100000,-0.100000)"
fill="#f2f2f2" stroke="none">
<path d="M3560 11703 c-8 -3 -49 -18 -90 -33 -41 -15 -86 -30 -100 -32 -16 -2
-26 -11 -30 -28 -7 -27 -2 -27 -131 -14 l-65 6 -67 -56 c-36 -31 -91 -86 -122
-122 -45 -54 -55 -72 -55 -103 0 -50 25 -74 94 -90 42 -9 71 -24 109 -57 29
-24 78 -57 109 -74 58 -30 88 -62 88 -91 0 -9 15 -26 34 -37 19 -11 42 -32 51
-45 15 -23 15 -28 1 -56 -9 -16 -57 -60 -106 -97 -50 -37 -95 -75 -101 -85 -6
-12 -6 -47 0 -101 6 -46 15 -163 21 -261 12 -196 18 -217 73 -236 18 -7 70
-32 117 -56 47 -24 103 -47 125 -51 44 -8 55 -18 55 -50 0 -36 36 -69 100 -95
75 -29 100 -51 100 -88 0 -37 -23 -55 -95 -76 -131 -37 -155 -71 -155 -222 0
-144 -8 -165 -100 -253 -65 -63 -85 -91 -126 -175 -46 -94 -52 -102 -104 -132
-90 -51 -115 -77 -139 -142 -42 -116 -121 -212 -313 -383 -47 -43 -99 -99
-115 -124 -41 -68 -102 -133 -143 -153 -39 -21 -93 -33 -228 -56 -128 -21
-127 -21 -162 30 -63 92 -117 93 -193 1 -23 -28 -85 -97 -139 -153 -121 -126
-134 -166 -88 -253 13 -25 76 -55 137 -65 57 -9 67 -24 59 -88 -22 -190 -22
-199 20 -241 15 -14 51 -33 80 -42 30 -8 57 -20 60 -26 4 -6 13 -36 20 -67 6
-31 28 -103 48 -160 20 -57 41 -134 47 -170 5 -36 12 -80 15 -97 5 -29 3 -32
-44 -52 -66 -29 -103 -28 -148 3 -44 30 -55 31 -129 5 -73 -25 -180 -26 -332
-3 -137 20 -175 12 -231 -47 -35 -38 -40 -40 -98 -40 -72 0 -94 -17 -94 -74 0
-49 18 -54 79 -20 61 34 76 25 33 -19 -18 -18 -32 -43 -32 -55 0 -85 172 -240
322 -291 84 -28 145 -26 279 9 63 16 117 30 122 30 39 0 -68 -105 -169 -165
-102 -62 -294 -87 -347 -45 -23 18 -27 19 -41 4 -9 -8 -16 -19 -16 -23 0 -18
161 -233 279 -371 151 -177 213 -239 282 -280 66 -39 75 -42 120 -36 68 9 239
61 318 97 88 40 134 73 165 118 33 48 44 85 57 191 12 110 35 191 52 184 23
-8 37 -43 47 -115 13 -88 23 -107 65 -125 l34 -14 -34 -50 c-18 -27 -36 -63
-40 -79 -8 -36 8 -99 42 -163 39 -74 41 -117 8 -189 -46 -104 -59 -210 -45
-376 l12 -142 29 -10 c35 -12 36 -28 8 -76 -25 -41 -24 -50 21 -205 60 -209
89 -347 99 -470 22 -265 55 -360 253 -733 60 -114 130 -256 154 -316 44 -107
56 -152 109 -386 42 -185 89 -294 193 -449 189 -278 293 -520 387 -896 58
-233 133 -361 288 -483 96 -76 142 -97 215 -97 49 0 72 6 123 33 81 42 116 87
136 171 26 116 74 148 305 206 l46 12 -16 27 c-22 39 -3 100 59 195 61 92 128
153 178 161 75 12 96 21 107 45 11 25 4 272 -11 420 -10 90 10 163 95 340 65
137 90 215 105 321 7 44 6 47 -34 81 -47 40 -51 60 -16 76 31 14 31 31 4 102
-18 46 -23 89 -31 268 l-9 213 26 56 c68 149 158 203 255 153 47 -24 50 -21
110 78 21 37 52 83 69 102 28 34 31 35 117 41 79 5 99 10 179 50 l90 44 6 70
c9 114 40 154 179 230 99 55 128 80 180 155 37 55 100 117 239 239 112 98 308
357 384 507 39 76 50 83 100 56 51 -27 59 -27 125 -2 162 62 280 159 341 282
35 68 39 114 17 194 -7 29 -11 64 -9 78 8 39 70 89 159 126 158 65 209 101
247 175 13 24 16 26 17 10 0 -30 28 -65 51 -65 11 0 44 13 75 30 39 21 64 28
84 24 20 -5 34 0 49 15 27 27 27 27 -8 162 -16 63 -33 146 -37 184 -9 91 -34
161 -93 265 -27 47 -51 94 -55 105 -3 12 5 43 20 75 26 57 34 104 18 120 -5 5
-45 29 -89 53 -55 30 -89 57 -109 85 -29 41 -29 41 -11 69 57 87 174 183 223
183 24 0 44 23 37 41 -7 17 -46 44 -140 98 -38 22 -83 53 -99 70 -25 27 -28
35 -24 78 5 45 74 183 99 199 5 3 26 -8 46 -25 44 -36 63 -38 88 -11 26 29 49
25 80 -16 33 -44 101 -94 127 -94 12 0 24 12 34 35 15 36 34 44 52 23 15 -20
52 -190 52 -241 0 -34 6 -53 24 -74 21 -25 33 -28 107 -34 46 -4 222 -8 390
-8 348 -1 335 2 327 -79 -13 -124 -88 -232 -209 -302 -94 -55 -122 -95 -127
-177 -6 -82 17 -143 65 -180 20 -15 46 -44 60 -66 48 -76 87 -55 96 51 7 72
39 176 64 205 19 20 56 23 70 5 10 -12 63 -188 104 -343 10 -38 30 -126 44
-194 29 -138 42 -165 89 -181 75 -24 87 9 96 255 6 185 7 191 36 245 26 50 29
64 29 150 -1 73 -6 111 -24 163 -13 38 -21 70 -20 71 2 2 57 0 122 -5 131 -10
153 -5 162 39 3 15 20 63 36 107 84 222 82 212 75 317 l-7 97 41 53 c62 83 72
124 69 293 -3 134 -2 146 16 164 11 10 75 71 143 135 67 64 157 139 198 166
66 43 83 50 127 50 37 0 58 -6 81 -23 31 -24 86 -43 86 -31 0 3 -13 22 -30 40
-65 75 -62 154 9 236 22 25 43 56 46 70 10 39 -18 83 -62 101 -51 20 -199 32
-246 19 -47 -13 -47 -4 -7 71 16 31 30 70 30 86 0 40 -40 71 -91 71 -42 0 -49
13 -24 46 8 10 14 28 15 39 0 20 -69 85 -90 85 -15 0 -120 -80 -120 -91 0 -5
-21 -23 -47 -39 -60 -39 -103 -38 -185 0 -34 16 -69 30 -76 30 -37 0 -85 -39
-150 -120 -79 -98 -132 -140 -211 -165 -45 -15 -55 -23 -75 -64 -14 -27 -54
-73 -96 -111 -40 -35 -86 -82 -101 -103 -56 -77 -135 -114 -269 -126 -69 -6
-79 -16 -66 -66 5 -18 17 -27 45 -35 74 -20 146 -132 139 -216 l-3 -39 -55 -6
c-30 -4 -70 -11 -87 -17 -61 -20 -517 -56 -698 -56 -114 1 -135 3 -172 22 -24
12 -50 34 -60 48 -22 34 -44 194 -36 271 10 105 -22 130 -132 102 -72 -18 -82
-37 -96 -174 -7 -76 -9 -167 -4 -250 10 -179 9 -195 -14 -218 -27 -28 -99 -32
-200 -13 -46 9 -134 16 -196 16 -63 0 -145 6 -182 14 -84 18 -461 138 -492
157 -12 8 -35 35 -51 60 -22 36 -43 54 -91 78 -76 38 -118 39 -289 10 -142
-24 -190 -18 -253 32 -49 39 -115 68 -259 113 -87 27 -134 48 -180 81 -139 99
-203 139 -301 184 -154 71 -185 89 -204 117 -16 25 -16 30 1 98 52 204 142
353 266 439 33 23 19 45 -41 66 -70 25 -107 48 -228 142 -62 49 -146 105 -187
124 -48 23 -83 47 -101 71 -60 79 -72 83 -115 46 -24 -20 -45 -2 -54 47 -21
122 -46 227 -74 301 -46 123 -48 142 -15 169 41 31 59 27 80 -20 11 -23 29
-48 41 -56 26 -16 43 -10 104 36 19 14 52 35 75 46 49 25 49 35 3 163 -38 103
-44 111 -108 145 -57 30 -71 62 -46 113 13 28 15 50 10 91 -8 70 3 83 71 83
30 0 61 3 70 6 20 8 40 48 49 94 5 27 21 49 67 89 86 76 115 121 149 231 36
116 37 152 8 192 -31 44 -128 103 -201 123 -62 17 -65 17 -193 -9 -168 -33
-229 -55 -315 -112 -53 -36 -81 -48 -119 -52 -52 -5 -59 0 -134 89 -10 11 -29
19 -48 19 -49 0 -113 36 -142 80 -14 22 -38 58 -52 80 -16 24 -59 61 -111 95
-47 32 -134 105 -199 169 -122 121 -147 135 -212 117 -21 -6 -43 -6 -58 0 -27
10 -79 11 -104 2z"/>
</g>
</svg>
