<svg width="1600" height="1600" viewBox="0 0 1600 1600" fill="none" xmlns="http://www.w3.org/2000/svg">
<path d="M474.667 39.5999C473.6 39.9999 468.133 41.9999 462.667 43.9999C457.2 45.9999 451.2 47.9999 449.333 48.2666C447.2 48.5333 445.867 49.7333 445.333 51.9999C444.4 55.5999 445.067 55.5999 427.867 53.8666L419.2 53.0666L410.267 60.5333C405.467 64.6666 398.133 71.9999 394 76.7999C388 83.9999 386.667 86.3999 386.667 90.5333C386.667 97.1999 390 100.4 399.2 102.533C404.8 103.733 408.667 105.733 413.733 110.133C417.6 113.333 424.133 117.733 428.267 120C436 124 440 128.267 440 132.133C440 133.333 442 135.6 444.533 137.067C447.067 138.533 450.133 141.333 451.333 143.067C453.333 146.133 453.333 146.8 451.467 150.533C450.267 152.667 443.867 158.533 437.333 163.467C430.667 168.4 424.667 173.467 423.867 174.8C423.067 176.4 423.067 181.067 423.867 188.267C424.667 194.4 425.867 210 426.667 223.067C428.267 249.2 429.067 252 436.4 254.533C438.8 255.467 445.733 258.8 452 262C458.267 265.2 465.733 268.267 468.667 268.8C474.533 269.867 476 271.2 476 275.467C476 280.267 480.8 284.667 489.333 288.133C499.333 292 502.667 294.933 502.667 299.867C502.667 304.8 499.6 307.2 490 310C472.533 314.933 469.333 319.467 469.333 339.6C469.333 358.8 468.267 361.6 456 373.333C447.333 381.733 444.667 385.467 439.2 396.667C433.067 409.2 432.267 410.267 425.333 414.267C413.333 421.067 410 424.533 406.8 433.2C401.2 448.667 390.667 461.467 365.067 484.267C358.8 490 351.867 497.467 349.733 500.8C344.267 509.867 336.133 518.533 330.667 521.2C325.467 524 318.267 525.6 300.267 528.667C283.2 531.467 283.333 531.467 278.667 524.667C270.267 512.4 263.067 512.267 252.933 524.533C249.867 528.267 241.6 537.467 234.4 544.933C218.267 561.733 216.533 567.067 222.667 578.667C224.4 582 232.8 586 240.933 587.333C248.533 588.533 249.867 590.533 248.8 599.067C245.867 624.4 245.867 625.6 251.467 631.2C253.467 633.067 258.267 635.6 262.133 636.8C266.133 637.867 269.733 639.467 270.133 640.267C270.667 641.067 271.867 645.067 272.8 649.2C273.6 653.333 276.533 662.933 279.2 670.533C281.867 678.133 284.667 688.4 285.467 693.2C286.133 698 287.067 703.867 287.467 706.133C288.133 710 287.867 710.4 281.6 713.067C272.8 716.933 267.867 716.8 261.867 712.667C256 708.667 254.533 708.533 244.667 712C234.933 715.333 220.667 715.467 200.4 712.4C182.133 709.733 177.067 710.8 169.6 718.667C164.933 723.733 164.267 724 156.533 724C146.933 724 144 726.267 144 733.867C144 740.4 146.4 741.067 154.533 736.533C162.667 732 164.667 733.2 158.933 739.067C156.533 741.467 154.667 744.8 154.667 746.4C154.667 757.733 177.6 778.4 197.6 785.2C208.8 788.933 216.933 788.667 234.8 784C243.2 781.867 250.4 780 251.067 780C256.267 780 242 794 228.533 802C214.933 810.267 189.333 813.6 182.267 808C179.2 805.6 178.667 805.467 176.8 807.467C175.6 808.533 174.667 810 174.667 810.533C174.667 812.933 196.133 841.6 211.867 860C232 883.6 240.267 891.867 249.467 897.333C258.267 902.533 259.467 902.933 265.467 902.133C274.533 900.933 297.333 894 307.867 889.2C319.6 883.867 325.733 879.467 329.867 873.467C334.267 867.067 335.733 862.133 337.467 848C339.067 833.333 342.133 822.533 344.4 823.467C347.467 824.533 349.333 829.2 350.667 838.8C352.4 850.533 353.733 853.067 359.333 855.467L363.867 857.333L359.333 864C356.933 867.6 354.533 872.4 354 874.533C352.933 879.333 355.067 887.733 359.6 896.267C364.8 906.133 365.067 911.867 360.667 921.467C354.533 935.333 352.8 949.467 354.667 971.6L356.267 990.533L360.133 991.867C364.8 993.467 364.933 995.6 361.2 1002C357.867 1007.47 358 1008.67 364 1029.33C372 1057.2 375.867 1075.6 377.2 1092C380.133 1127.33 384.533 1140 410.933 1189.73C418.933 1204.93 428.267 1223.87 431.467 1231.87C437.333 1246.13 438.933 1252.13 446 1283.33C451.6 1308 457.867 1322.53 471.733 1343.2C496.933 1380.27 510.8 1412.53 523.333 1462.67C531.067 1493.73 541.067 1510.8 561.733 1527.07C574.533 1537.2 580.667 1540 590.4 1540C596.933 1540 600 1539.2 606.8 1535.6C617.6 1530 622.267 1524 624.933 1512.8C628.4 1497.33 634.8 1493.07 665.6 1485.33L671.733 1483.73L669.6 1480.13C666.667 1474.93 669.2 1466.8 677.467 1454.13C685.6 1441.87 694.533 1433.73 701.2 1432.67C711.2 1431.07 714 1429.87 715.467 1426.67C716.933 1423.33 716 1390.4 714 1370.67C712.667 1358.67 715.333 1348.93 726.667 1325.33C735.333 1307.07 738.667 1296.67 740.667 1282.53C741.6 1276.67 741.467 1276.27 736.133 1271.73C729.867 1266.4 729.333 1263.73 734 1261.6C738.133 1259.73 738.133 1257.47 734.533 1248C732.133 1241.87 731.467 1236.13 730.4 1212.27L729.2 1183.87L732.667 1176.4C741.733 1156.53 753.733 1149.33 766.667 1156C772.933 1159.2 773.333 1158.8 781.333 1145.6C784.133 1140.67 788.267 1134.53 790.533 1132C794.267 1127.47 794.667 1127.33 806.133 1126.53C816.667 1125.87 819.333 1125.2 830 1119.87L842 1114L842.8 1104.67C844 1089.47 848.133 1084.13 866.667 1074C879.867 1066.67 883.733 1063.33 890.667 1053.33C895.6 1046 904 1037.73 922.533 1021.47C937.467 1008.4 963.6 973.867 973.733 953.867C978.933 943.733 980.4 942.8 987.067 946.4C993.867 950 994.933 950 1003.73 946.667C1025.33 938.4 1041.07 925.467 1049.2 909.067C1053.87 900 1054.4 893.867 1051.47 883.2C1050.53 879.333 1050 874.667 1050.27 872.8C1051.33 867.6 1059.6 860.933 1071.47 856C1092.53 847.333 1099.33 842.533 1104.4 832.667C1106.13 829.467 1106.53 829.2 1106.67 831.333C1106.67 835.333 1110.4 840 1113.47 840C1114.93 840 1119.33 838.267 1123.47 836C1128.67 833.2 1132 832.267 1134.67 832.8C1137.33 833.467 1139.2 832.8 1141.2 830.8C1144.8 827.2 1144.8 827.2 1140.13 809.2C1138 800.8 1135.73 789.733 1135.2 784.667C1134 772.533 1130.67 763.2 1122.8 749.333C1119.2 743.067 1116 736.8 1115.47 735.333C1115.07 733.733 1116.13 729.6 1118.13 725.333C1121.6 717.733 1122.67 711.467 1120.53 709.333C1119.87 708.667 1114.53 705.467 1108.67 702.267C1101.33 698.267 1096.8 694.667 1094.13 690.933C1090.27 685.467 1090.27 685.467 1092.67 681.733C1100.27 670.133 1115.87 657.333 1122.4 657.333C1125.6 657.333 1128.27 654.267 1127.33 651.867C1126.4 649.6 1121.2 646 1108.67 638.8C1103.6 635.867 1097.6 631.733 1095.47 629.467C1092.13 625.867 1091.73 624.8 1092.27 619.067C1092.93 613.067 1102.13 594.667 1105.47 592.533C1106.13 592.133 1108.93 593.6 1111.6 595.867C1117.47 600.667 1120 600.933 1123.33 597.333C1126.8 593.467 1129.87 594 1134 599.467C1138.4 605.333 1147.47 612 1150.93 612C1152.53 612 1154.13 610.4 1155.47 607.333C1157.47 602.533 1160 601.467 1162.4 604.267C1164.4 606.933 1169.33 629.6 1169.33 636.4C1169.33 640.933 1170.13 643.467 1172.53 646.267C1175.33 649.6 1176.93 650 1186.8 650.8C1192.93 651.333 1216.4 651.867 1238.8 651.867C1285.2 652 1283.47 651.6 1282.4 662.4C1280.67 678.933 1270.67 693.333 1254.53 702.667C1242 710 1238.27 715.333 1237.6 726.267C1236.8 737.2 1239.87 745.333 1246.27 750.267C1248.93 752.267 1252.4 756.133 1254.27 759.067C1260.67 769.2 1265.87 766.4 1267.07 752.267C1268 742.667 1272.27 728.8 1275.6 724.933C1278.13 722.267 1283.07 721.867 1284.93 724.267C1286.27 725.867 1293.33 749.333 1298.8 770C1300.13 775.067 1302.8 786.8 1304.67 795.867C1308.53 814.267 1310.27 817.867 1316.53 820C1326.53 823.2 1328.13 818.8 1329.33 786C1330.13 761.333 1330.27 760.533 1334.13 753.333C1337.6 746.667 1338 744.8 1338 733.333C1337.87 723.6 1337.2 718.533 1334.8 711.6C1333.07 706.533 1332 702.267 1332.13 702.133C1332.4 701.867 1339.73 702.133 1348.4 702.8C1365.87 704.133 1368.8 703.467 1370 697.6C1370.4 695.6 1372.67 689.2 1374.8 683.333C1386 653.733 1385.73 655.067 1384.8 641.067L1383.87 628.133L1389.33 621.067C1397.6 610 1398.93 604.533 1398.53 582C1398.13 564.133 1398.27 562.533 1400.67 560.133C1402.13 558.8 1410.67 550.667 1419.73 542.133C1428.67 533.6 1440.67 523.6 1446.13 520C1454.93 514.267 1457.2 513.333 1463.07 513.333C1468 513.333 1470.8 514.133 1473.87 516.4C1478 519.6 1485.33 522.133 1485.33 520.533C1485.33 520.133 1483.6 517.6 1481.33 515.2C1472.67 505.2 1473.07 494.667 1482.53 483.733C1485.47 480.4 1488.27 476.267 1488.67 474.4C1490 469.2 1486.27 463.333 1480.4 460.933C1473.6 458.267 1453.87 456.667 1447.6 458.4C1441.33 460.133 1441.33 458.933 1446.67 448.933C1448.8 444.8 1450.67 439.6 1450.67 437.467C1450.67 432.133 1445.33 428 1438.53 428C1432.93 428 1432 426.267 1435.33 421.867C1436.4 420.533 1437.2 418.133 1437.33 416.667C1437.33 414 1428.13 405.333 1425.33 405.333C1423.33 405.333 1409.33 416 1409.33 417.467C1409.33 418.133 1406.53 420.533 1403.07 422.667C1395.07 427.867 1389.33 427.733 1378.4 422.667C1373.87 420.533 1369.2 418.667 1368.27 418.667C1363.33 418.667 1356.93 423.867 1348.27 434.667C1337.73 447.733 1330.67 453.333 1320.13 456.667C1314.13 458.667 1312.8 459.733 1310.13 465.2C1308.27 468.8 1302.93 474.933 1297.33 480C1292 484.667 1285.87 490.933 1283.87 493.733C1276.4 504 1265.87 508.933 1248 510.533C1238.8 511.333 1237.47 512.667 1239.2 519.333C1239.87 521.733 1241.47 522.933 1245.2 524C1255.07 526.667 1264.67 541.6 1263.73 552.8L1263.33 558L1256 558.8C1252 559.333 1246.67 560.267 1244.4 561.067C1236.27 563.733 1175.47 568.533 1151.33 568.533C1136.13 568.4 1133.33 568.133 1128.4 565.6C1125.2 564 1121.73 561.067 1120.4 559.2C1117.47 554.667 1114.53 533.333 1115.6 523.067C1116.93 509.067 1112.67 505.733 1098 509.467C1088.4 511.867 1087.07 514.4 1085.2 532.667C1084.27 542.8 1084 554.933 1084.67 566C1086 589.867 1085.87 592 1082.8 595.067C1079.2 598.8 1069.6 599.333 1056.13 596.8C1050 595.6 1038.27 594.667 1030 594.667C1021.6 594.667 1010.67 593.867 1005.73 592.8C994.533 590.4 944.267 574.4 940.133 571.867C938.533 570.8 935.467 567.2 933.333 563.867C930.4 559.067 927.6 556.667 921.2 553.467C911.067 548.4 905.467 548.267 882.667 552.133C863.733 555.333 857.333 554.533 848.933 547.867C842.4 542.667 833.6 538.8 814.4 532.8C802.8 529.2 796.533 526.4 790.4 522C771.867 508.8 763.333 503.467 750.267 497.467C729.733 488 725.6 485.6 723.067 481.867C720.933 478.533 720.933 477.867 723.2 468.8C730.133 441.6 742.133 421.733 758.667 410.267C763.067 407.2 761.2 404.267 753.2 401.467C743.867 398.133 738.933 395.067 722.8 382.533C714.533 376 703.333 368.533 697.867 366C691.467 362.933 686.8 359.733 684.4 356.533C676.4 346 674.8 345.467 669.067 350.4C665.867 353.067 663.067 350.667 661.867 344.133C659.067 327.867 655.733 313.867 652 304C645.867 287.6 645.6 285.067 650 281.467C655.467 277.333 657.867 277.867 660.667 284.133C662.133 287.2 664.533 290.533 666.133 291.6C669.6 293.733 671.867 292.933 680 286.8C682.533 284.933 686.933 282.133 690 280.667C696.533 277.333 696.533 276 690.4 258.933C685.333 245.2 684.533 244.133 676 239.6C668.4 235.6 666.533 231.333 669.867 224.533C671.6 220.8 671.867 217.867 671.2 212.4C670.133 203.067 671.6 201.333 680.667 201.333C684.667 201.333 688.8 200.933 690 200.533C692.667 199.467 695.333 194.133 696.533 188C697.2 184.4 699.333 181.467 705.467 176.133C716.933 166 720.8 160 725.333 145.333C730.133 129.867 730.267 125.067 726.4 119.733C722.267 113.867 709.333 106 699.6 103.333C691.333 101.067 690.933 101.067 673.867 104.533C651.467 108.933 643.333 111.867 631.867 119.467C624.8 124.267 621.067 125.867 616 126.4C609.067 127.067 608.133 126.4 598.133 114.533C596.8 113.067 594.267 112 591.733 112C585.2 112 576.667 107.2 572.8 101.333C570.933 98.3999 567.733 93.5999 565.867 90.6666C563.733 87.4666 558 82.5333 551.067 77.9999C544.8 73.7333 533.2 63.9999 524.533 55.4666C508.267 39.3333 504.933 37.4666 496.267 39.8666C493.467 40.6666 490.533 40.6666 488.533 39.8666C484.933 38.5333 478 38.3999 474.667 39.5999Z" fill="#F2F2F2"/>
<path d="M980.82 623.075C973.397 623.837 969.15 624.658 964.353 626.271C951.647 630.581 941.015 638.468 933.786 648.993C926.979 658.933 923.835 671.804 925.391 683.297C927.919 701.798 942.506 727.306 966.687 755.57C972.392 762.254 979.75 770.259 981.436 771.637C983.672 773.454 986.395 773.454 988.631 771.637C990.317 770.259 997.675 762.254 1003.38 755.57C1025.13 730.15 1039.1 707.046 1043.51 689.102C1044.64 684.499 1045 681.509 1045 676.7C1044.97 662.627 1038.74 649.169 1027.5 639.025C1018.23 630.61 1007.3 625.538 994.434 623.632C991.387 623.192 983.024 622.84 980.82 623.075ZM988.826 650.195C1000.92 651.661 1010.93 659.519 1014.21 670.103C1015.08 672.889 1015.41 678.489 1014.89 681.538C1013.36 690.217 1007.08 697.84 998.161 701.768C992.91 704.085 987.529 704.964 982.051 704.407C977.773 703.967 975.601 703.41 971.906 701.768C962.992 697.84 956.703 690.217 955.18 681.538C954.661 678.489 954.985 672.889 955.861 670.103C959.912 657.027 974.207 648.378 988.826 650.195Z" fill="#007BFF"/>
</svg>
