<?xml version="1.0" standalone="no"?>
<!DOCTYPE svg PUBLIC "-//W3C//DTD SVG 20010904//EN"
 "http://www.w3.org/TR/2001/REC-SVG-20010904/DTD/svg10.dtd">
<svg version="1.0" xmlns="http://www.w3.org/2000/svg"
 width="52.000000pt" height="52.000000pt" viewBox="0 0 52.000000 52.000000"
 preserveAspectRatio="xMidYMid meet">

<g transform="translate(0.000000,52.000000) scale(0.100000,-0.100000)"
fill="#D22B2B" stroke="none">
<path d="M205 501 c-116 -29 -189 -122 -189 -241 0 -100 57 -187 146 -224 51
-22 153 -20 203 3 46 20 101 79 121 127 19 44 18 146 -2 192 -19 46 -68 98
-114 122 -42 21 -123 32 -165 21z m92 -65 c-3 -8 -9 -30 -12 -49 -6 -29 -4
-35 14 -40 28 -7 17 -47 -14 -47 -19 0 -25 -8 -34 -46 -6 -25 -9 -49 -6 -55
13 -20 25 -7 36 36 11 44 13 45 50 45 25 0 39 -5 39 -12 -1 -7 -11 -56 -24
-108 l-23 -95 -39 0 c-22 0 -38 5 -38 10 1 6 4 22 8 37 6 27 4 28 -29 28 -22
0 -43 8 -55 20 -24 24 -24 21 -5 90 8 30 15 56 15 58 0 1 -9 2 -20 2 -27 0
-25 17 3 24 13 3 46 30 73 60 49 54 71 69 61 42z"/>
</g>
</svg>
