<?xml version="1.0" standalone="no"?>
<!DOCTYPE svg PUBLIC "-//W3C//DTD SVG 20010904//EN"
 "http://www.w3.org/TR/2001/REC-SVG-20010904/DTD/svg10.dtd">
<svg version="1.0" xmlns="http://www.w3.org/2000/svg"
 width="114.000000pt" height="108.000000pt" viewBox="0 0 114.000000 108.000000"
 preserveAspectRatio="xMidYMid meet">

<g transform="translate(0.000000,108.000000) scale(0.100000,-0.100000)"
fill="#f2f2f2" stroke="none">
<path d="M761 1051 c-25 -35 -26 -39 -3 -64 16 -19 16 -20 -3 -15 -11 3 -28 9
-37 13 -22 9 -36 -8 -117 -142 -48 -78 -72 -109 -88 -111 -22 -3 -22 -3 -8 39
21 59 18 106 -9 164 -27 59 -46 77 -106 104 -83 38 -170 21 -237 -45 -60 -60
-78 -144 -49 -225 12 -35 12 -36 -16 -47 -26 -10 -28 -14 -28 -70 0 -62 15
-92 45 -92 10 0 13 -8 10 -27 -21 -117 -55 -348 -55 -376 0 -19 8 -44 17 -56
18 -21 22 -21 338 -19 311 3 320 4 324 23 4 25 19 35 51 35 41 0 142 54 189
101 62 62 94 135 99 230 4 68 1 84 -22 135 -15 33 -40 73 -55 89 -51 56 -62
81 -49 111 11 24 10 28 -15 48 -33 27 -35 38 -3 30 19 -4 29 1 51 30 15 20 25
42 22 50 -8 20 -175 116 -202 116 -15 0 -32 -11 -44 -29z m129 -47 c44 -25 80
-49 80 -54 0 -4 -6 -13 -14 -19 -12 -10 -31 -3 -95 34 -45 26 -81 50 -81 54 0
7 21 31 27 31 2 0 40 -21 83 -46z m-538 16 c79 -22 131 -91 131 -175 0 -85
-52 -153 -134 -175 -130 -35 -254 90 -219 221 14 52 64 106 115 124 49 17 60
18 107 5z m495 -86 c24 -14 41 -29 38 -34 -6 -10 -95 40 -95 52 0 13 11 9 57
-18z m-23 -50 c50 -31 92 -58 94 -59 1 -1 0 -10 -4 -19 -4 -11 -18 -16 -48
-16 -48 0 -80 -19 -101 -60 -19 -37 -19 -64 1 -106 13 -28 14 -36 2 -53 -13
-18 -18 -16 -113 46 -55 36 -102 67 -104 69 -2 2 32 62 75 134 53 88 83 128
93 125 7 -3 55 -31 105 -61z m81 -130 c19 -8 45 -55 45 -84 0 -32 -44 -70 -81
-70 -74 0 -109 95 -53 139 27 21 59 26 89 15z m-716 -90 c39 -25 54 -29 117
-29 66 0 77 3 119 33 l46 32 -7 -35 c-5 -27 -3 -36 10 -41 44 -17 -13 -24
-190 -24 l-194 0 0 43 c0 24 3 46 6 50 12 12 50 0 93 -29z m434 -65 c126 -81
143 -94 129 -103 -12 -7 -251 145 -252 162 0 6 3 12 6 12 3 0 56 -32 117 -71z
m413 -38 c43 -145 -46 -315 -196 -372 -65 -25 -210 -27 -210 -4 0 11 12 15 45
15 30 0 47 5 51 14 3 8 26 19 51 26 87 21 149 71 184 145 22 48 25 148 5 184
-12 21 -12 30 2 58 l16 34 18 -23 c10 -13 25 -47 34 -77z m-495 19 c16 -9 17
-14 6 -30 -21 -35 -55 -19 -42 20 7 23 10 24 36 10z m400 -35 c27 -71 -15
-188 -86 -238 -51 -35 -114 -47 -127 -24 -7 14 -25 17 -93 17 -96 0 -86 -10
-105 110 -13 83 -13 80 5 80 8 0 23 13 33 29 11 18 23 27 30 22 8 -5 6 -15 -8
-36 -25 -38 -25 -39 7 -70 36 -33 68 -32 90 3 9 15 18 28 19 30 1 2 12 -2 24
-8 28 -15 60 11 60 51 0 52 6 56 77 55 56 -1 67 -4 74 -21z m-473 -15 c12 -26
42 -183 42 -217 0 -10 -26 -13 -95 -13 -92 0 -96 -1 -107 -25 -8 -19 -8 -31 0
-50 10 -21 18 -25 57 -25 33 0 45 -4 45 -15 0 -11 -11 -15 -39 -15 -43 0 -71
-20 -71 -51 0 -17 -8 -19 -85 -19 -72 0 -88 3 -105 20 -23 23 -24 32 -9 117
l11 63 64 0 c50 0 64 3 64 15 0 12 -13 15 -60 15 -52 0 -60 2 -60 19 0 46 8
51 91 51 64 0 79 3 79 15 0 12 -16 15 -80 15 l-80 0 6 28 c10 40 12 42 50 42
24 0 34 5 34 15 0 10 -11 15 -35 15 -24 0 -35 5 -35 15 0 13 24 15 153 15
l152 0 13 -30z m200 -40 c1 -9 -3 -23 -10 -32 -11 -15 -16 -15 -31 -3 -16 11
-17 16 -5 34 14 24 41 24 46 1z m32 -240 c0 -19 -8 -20 -180 -20 -173 0 -180
1 -180 20 0 19 7 20 180 19 172 0 180 0 180 -19z m-110 -65 c0 -12 -14 -15
-70 -15 -56 0 -70 3 -70 15 0 12 14 15 70 15 56 0 70 -3 70 -15z m110 -70 c0
-13 -27 -15 -180 -15 -153 0 -180 2 -180 15 0 13 27 15 180 15 153 0 180 -2
180 -15z"/>
<path d="M338 859 l-63 -70 -28 32 c-20 22 -32 28 -39 21 -8 -8 -1 -24 23 -56
19 -25 37 -46 40 -46 11 0 158 173 153 181 -10 17 -24 8 -86 -62z"/>
<path d="M838 719 c-21 -12 -24 -59 -6 -77 20 -20 56 -14 74 13 15 23 15 27 0
50 -17 26 -40 31 -68 14z m37 -49 c-5 -8 -11 -8 -17 -2 -6 6 -7 16 -3 22 5 8
11 8 17 2 6 -6 7 -16 3 -22z"/>
<path d="M250 515 c0 -8 9 -15 20 -15 11 0 20 7 20 15 0 8 -9 15 -20 15 -11 0
-20 -7 -20 -15z"/>
</g>
</svg>
